<svg id="Layer_1" data-name="Layer 1" xmlns="http://www.w3.org/2000/svg" viewBox="0 0 920.71 221.87"><title>Banner v1</title><path d="M96.74,95.31,120.16,92c6.67-.95,13.34-1.86,20-2.83a5.77,5.77,0,0,1,3.89.62q12.83,7.11,25.76,14a2,2,0,0,1,1.1,2.08q-.12,54.5-.22,109,0,12,0,24v1.7c2.37-.31,4.61-.58,6.84-.9,13.45-1.89,26.9-3.81,40.35-5.67a4.07,4.07,0,0,1,2.31.46q13.2,7.13,26.32,14.37a2.39,2.39,0,0,1,1.12,1.65c0,13.87,0,27.73,0,41.6,0,1.42-.45,1.81-1.79,2-12.81,1.75-25.61,3.58-38.42,5.38Q187,302.34,166.6,305.2c-11.46,1.61-22.93,3.17-34.39,4.77-2,.28-4,.72-6,.94a4.55,4.55,0,0,1-2.45-.4c-8.84-4.79-17.63-9.65-26.47-14.45a1.83,1.83,0,0,1-1-2q.1-40.71.19-81.41.07-40,.13-80.11,0-18,0-36.05C96.67,96.16,96.71,95.78,96.74,95.31Zm65.6,172.25V112a3.64,3.64,0,0,0-.63-.06c-10.06,1.41-20.12,2.84-30.19,4.21-1.24.17-1.24.9-1.24,1.83Q130.13,209,130,300c0,.56.07,1.13.12,1.81l109-15.33v-29.7Zm-40.87,31.86V297.2q.09-36.3.16-72.6.11-54,.2-108a2.08,2.08,0,0,0-1.28-2.14c-4.66-2.47-9.27-5-13.9-7.52-.41-.22-.85-.39-1.52-.7v2q0,18,0,36.06Q105,178,105,211.79q-.09,38.75-.14,77.49a2.37,2.37,0,0,0,1,1.72c4.78,2.69,9.62,5.29,14.44,7.91C120.61,299.06,120.9,299.17,121.47,299.42Zm49.27-41.63,58.79-8.27a116.94,116.94,0,0,0-10.66-6.13,5.6,5.6,0,0,0-3.06-.55c-13,1.76-25.92,3.6-38.88,5.43-2.07.29-4.13.62-6.19.93Zm-55.87-156.5,0,.41c3.85,2.09,7.7,4.2,11.57,6.26a2.16,2.16,0,0,0,1.24.1q10.15-1.36,20.29-2.77c1.61-.23,3.2-.51,4.81-.76-3.4-2.2-6.85-4-10.22-6a5.81,5.81,0,0,0-4-.66c-5.21.78-10.42,1.48-15.63,2.22C120.2,100.5,117.54,100.9,114.87,101.29Z" transform="translate(-96.34 -89.07)" fill="#2adaff"/><path d="M302.77,163.47h29.68a42.61,42.61,0,0,1,19.3,4.22,31.18,31.18,0,0,1,13.1,11.93,36.39,36.39,0,0,1,0,35.6,31.18,31.18,0,0,1-13.1,11.93,42.48,42.48,0,0,1-19.3,4.22H302.77Zm29.1,57.23A28.76,28.76,0,0,0,345,217.84a20.38,20.38,0,0,0,8.73-8.15,26.13,26.13,0,0,0,0-24.54A20.44,20.44,0,0,0,345,177a28.89,28.89,0,0,0-13.14-2.86H315.38V220.7Z" transform="translate(-96.34 -89.07)" fill="none" stroke="#00e99e" stroke-miterlimit="10" stroke-width="5"/><path d="M382.89,163.47H395.5v67.9H382.89Z" transform="translate(-96.34 -89.07)" fill="none" stroke="#00e99e" stroke-miterlimit="10" stroke-width="5"/><path d="M419.7,230.11a31.65,31.65,0,0,1-11.59-5.92l4.36-9.79a34.27,34.27,0,0,0,10.24,5.38,37.22,37.22,0,0,0,12.17,2.09q7.56,0,11.3-2.43a7.34,7.34,0,0,0,3.74-6.4,6.2,6.2,0,0,0-2.09-4.8,14.6,14.6,0,0,0-5.29-3q-3.19-1.07-8.73-2.43a100.25,100.25,0,0,1-12.56-3.68A20.62,20.62,0,0,1,413,193.4q-3.45-3.93-3.45-10.62a18.12,18.12,0,0,1,3.06-10.24,20.71,20.71,0,0,1,9.21-7.32,37.38,37.38,0,0,1,15.09-2.72,49,49,0,0,1,12.22,1.55,33.92,33.92,0,0,1,10.38,4.47l-4,9.79a39.2,39.2,0,0,0-9.31-4,34.69,34.69,0,0,0-9.41-1.36q-7.47,0-11.11,2.52a7.78,7.78,0,0,0-3.63,6.69,6.06,6.06,0,0,0,2.08,4.76,15.14,15.14,0,0,0,5.29,2.91q3.19,1.06,8.73,2.42a92.77,92.77,0,0,1,12.41,3.64,21.22,21.22,0,0,1,8.3,5.77q3.44,3.88,3.44,10.48a17.92,17.92,0,0,1-3.05,10.18,20.81,20.81,0,0,1-9.27,7.28,37.7,37.7,0,0,1-15.13,2.71A51.69,51.69,0,0,1,419.7,230.11Z" transform="translate(-96.34 -89.07)" fill="none" stroke="#00e99e" stroke-miterlimit="10" stroke-width="5"/><path d="M487.65,174.14H465.14V163.47h57.62v10.67h-22.5v57.23H487.65Z" transform="translate(-96.34 -89.07)" fill="none" stroke="#00e99e" stroke-miterlimit="10" stroke-width="5"/><path d="M576.69,231.37l-13.87-19.88c-.58.06-1.45.09-2.62.09H544.88v19.79H532.27v-67.9H560.2a37.62,37.62,0,0,1,15.38,2.91,22.4,22.4,0,0,1,10,8.34,23.37,23.37,0,0,1,3.49,12.91,23.1,23.1,0,0,1-3.73,13.19,22.32,22.32,0,0,1-10.72,8.24l15.61,22.31Zm-4.56-53.74q-4.26-3.48-12.51-3.49H544.88v27.07h14.74q8.25,0,12.51-3.54t4.27-10Q576.4,181.12,572.13,177.63Z" transform="translate(-96.34 -89.07)" fill="none" stroke="#00e99e" stroke-miterlimit="10" stroke-width="5"/><path d="M603.17,163.47h12.61v67.9H603.17Z" transform="translate(-96.34 -89.07)" fill="none" stroke="#00e99e" stroke-miterlimit="10" stroke-width="5"/><path d="M691.15,202.22a17.14,17.14,0,0,1,3.3,10.72q0,8.84-6.79,13.63t-19.79,4.8H634.12v-67.9h31.81q12,0,18.53,4.71a15.11,15.11,0,0,1,6.5,12.95,17,17,0,0,1-2.33,8.92,15.91,15.91,0,0,1-6.4,6A18,18,0,0,1,691.15,202.22Zm-44.43-28.85v18.72h17.85q6.6,0,10.14-2.38a7.81,7.81,0,0,0,3.54-6.93,7.93,7.93,0,0,0-3.54-7q-3.54-2.37-10.14-2.37Zm35,38.31q0-9.8-14.65-9.8H646.72v19.6h20.37Q681.75,221.48,681.74,211.68Z" transform="translate(-96.34 -89.07)" fill="none" stroke="#00e99e" stroke-miterlimit="10" stroke-width="5"/><path d="M715.21,224.44q-7.86-7.91-7.86-22.65V163.47H720V201.3q0,20,17.26,20t17.17-20V163.47h12.42v38.32q0,14.75-7.81,22.65t-21.87,7.9Q723.06,232.34,715.21,224.44Z" transform="translate(-96.34 -89.07)" fill="none" stroke="#00e99e" stroke-miterlimit="10" stroke-width="5"/><path d="M797,174.14H774.47V163.47h57.62v10.67h-22.5v57.23H797Z" transform="translate(-96.34 -89.07)" fill="none" stroke="#00e99e" stroke-miterlimit="10" stroke-width="5"/><path d="M841.6,163.47h12.61v67.9H841.6Z" transform="translate(-96.34 -89.07)" fill="none" stroke="#00e99e" stroke-miterlimit="10" stroke-width="5"/><path d="M885.54,227.83a33.42,33.42,0,0,1-13.1-12.51,36.08,36.08,0,0,1,0-35.79A33.37,33.37,0,0,1,885.54,167,41.11,41.11,0,0,1,923,167a33.57,33.57,0,0,1,13.09,12.47,36.21,36.21,0,0,1,0,35.89A33.54,33.54,0,0,1,923,227.83a41.11,41.11,0,0,1-37.44,0Zm30.94-9.6a22.09,22.09,0,0,0,8.53-8.54,25.76,25.76,0,0,0,0-24.54,22.06,22.06,0,0,0-8.53-8.53,26,26,0,0,0-24.45,0,22.06,22.06,0,0,0-8.53,8.53,25.76,25.76,0,0,0,0,24.54,22.09,22.09,0,0,0,8.53,8.54,26,26,0,0,0,24.45,0Z" transform="translate(-96.34 -89.07)" fill="none" stroke="#00e99e" stroke-miterlimit="10" stroke-width="5"/><path d="M1014.54,163.47v67.9h-10.37l-37.45-46v46H954.21v-67.9h10.38l37.44,46v-46Z" transform="translate(-96.34 -89.07)" fill="none" stroke="#00e99e" stroke-miterlimit="10" stroke-width="5"/></svg>