<?xml version="1.0" encoding="utf-8"?>
<!-- Generator: Adobe Illustrator 22.1.0, SVG Export Plug-In . SVG Version: 6.00 Build 0)  -->
<svg version="1.1" id="Layer_1" xmlns="http://www.w3.org/2000/svg" xmlns:xlink="http://www.w3.org/1999/xlink" x="0px" y="0px"
	 viewBox="0 0 229 168" style="enable-background:new 0 0 229 168;" xml:space="preserve">
<style type="text/css">
	.st0{fill:#2ADAFF;}
	.st1{fill:none;stroke:#2ADAFF;stroke-width:6;stroke-miterlimit:10;}
</style>
<path class="st0" d="M0.8,8.1C6.6,7.3,12.3,6.5,18,5.7c4.9-0.7,9.8-1.4,14.7-2.1c1-0.1,1.9-0.1,2.9,0.5c6.3,3.5,12.6,6.9,18.9,10.3
	c0.7,0.4,0.8,0.8,0.8,1.5c-0.1,26.7-0.1,53.4-0.2,80.2c0,5.9,0,11.8,0,17.6c0,0.4,0,0.7,0,1.3c1.7-0.2,3.4-0.4,5-0.7
	c9.9-1.4,19.8-2.8,29.7-4.2c0.5-0.1,1.2,0.1,1.7,0.3c6.5,3.5,12.9,7,19.4,10.6c0.4,0.2,0.8,0.8,0.8,1.2c0,10.2,0,20.4,0,30.6
	c0,1-0.3,1.3-1.3,1.5c-9.4,1.3-18.8,2.6-28.3,4c-10,1.4-20,2.8-30,4.2c-8.4,1.2-16.9,2.3-25.3,3.5c-1.5,0.2-2.9,0.5-4.4,0.7
	c-0.6,0.1-1.3,0-1.8-0.3c-6.5-3.5-13-7.1-19.5-10.6c-0.7-0.4-0.7-0.8-0.7-1.4c0.1-20,0.1-39.9,0.1-59.9c0-19.6,0.1-39.3,0.1-58.9
	c0-8.8,0-17.7,0-26.5C0.7,8.8,0.7,8.5,0.8,8.1z M49,134.8c0-38.3,0-76.4,0-114.4c-0.2,0-0.3-0.1-0.5,0c-7.4,1-14.8,2.1-22.2,3.1
	c-0.9,0.1-0.9,0.7-0.9,1.3c-0.1,44.6-0.2,89.3-0.2,133.9c0,0.4,0.1,0.8,0.1,1.3c26.8-3.8,53.5-7.5,80.2-11.3c0-7.3,0-14.5,0-21.8
	C86.6,129.6,67.9,132.2,49,134.8z M18.9,158.3c0-0.7,0-1.2,0-1.6c0-17.8,0.1-35.6,0.1-53.4c0-26.5,0.1-53,0.1-79.4
	c0-0.8-0.3-1.2-0.9-1.6c-3.4-1.8-6.8-3.7-10.2-5.5c-0.3-0.2-0.6-0.3-1.1-0.5c0,0.6,0,1,0,1.4c0,8.8,0,17.7,0,26.5
	c0,16.6-0.1,33.1-0.1,49.7c0,19-0.1,38-0.1,57c0,0.4,0.4,1,0.8,1.3c3.5,2,7.1,3.9,10.6,5.8C18.3,158,18.5,158.1,18.9,158.3z
	 M55.2,127.7c14.5-2,28.9-4.1,43.2-6.1c-2.6-1.7-5.2-3.2-7.8-4.5c-0.7-0.3-1.5-0.5-2.3-0.4c-9.5,1.3-19.1,2.6-28.6,4
	c-1.5,0.2-3,0.5-4.6,0.7C55.2,123.5,55.2,125.5,55.2,127.7z M14.1,12.5c0,0.1,0,0.2,0,0.3c2.8,1.5,5.7,3.1,8.5,4.6
	c0.2,0.1,0.6,0.1,0.9,0.1c5-0.7,9.9-1.4,14.9-2c1.2-0.2,2.4-0.4,3.5-0.6c-2.5-1.6-5-2.9-7.5-4.4c-1-0.6-1.9-0.6-3-0.5
	c-3.8,0.6-7.7,1.1-11.5,1.6C18,12,16.1,12.3,14.1,12.5z"/>
<g>
	<path class="st1" d="M165.9,87.5c3.5-5,8.6-10.6,15.3-16.5c5.1-4.5,8.9-8.5,11.4-11.8c2.5-3.3,3.7-7.1,3.7-11.4
		c0-6-2.4-10.8-7.3-14.5c-4.8-3.7-11.3-5.5-19.4-5.5c-15.4,0-27,5.5-34.8,16.4l-20.7-13.4c6.1-8.4,14-14.8,23.7-19.3
		c9.7-4.5,21-6.7,34.1-6.7c15.9,0,28.6,3.4,38.1,10.3c9.5,6.9,14.2,16.4,14.2,28.5c0,5.8-1,11-2.9,15.4c-1.9,4.4-4.2,8.1-6.9,11.2
		c-2.7,3.1-6.3,6.6-10.7,10.6c-5.4,4.8-9.4,9.1-12.1,12.8c-2.6,3.7-3.9,8.1-3.9,13.2h-27.1C160.7,99,162.4,92.6,165.9,87.5z
		 M162.1,152.8c-3.2-3.2-4.8-7.1-4.8-11.8s1.6-8.6,4.8-11.7c3.2-3.1,7.3-4.7,12.3-4.7c4.8,0,8.9,1.6,12.1,4.7
		c3.2,3.1,4.8,7,4.8,11.7s-1.6,8.6-4.8,11.8c-3.2,3.2-7.2,4.8-12.1,4.8C169.4,157.6,165.3,156,162.1,152.8z"/>
</g>
<g>
</g>
<g>
</g>
<g>
</g>
<g>
</g>
<g>
</g>
<g>
</g>
<g>
</g>
<g>
</g>
<g>
</g>
<g>
</g>
<g>
</g>
<g>
</g>
<g>
</g>
<g>
</g>
<g>
</g>
</svg>
